HIERARCHY
ROOT root
{
	OFFSET	0	13.1	24.9
	CHANNELS 6  Xposition Yposition Zposition Xrotation Yrotation Zrotation
	JOINT spine_1
	{
		OFFSET	0	9.99999	0
		CHANNELS 3  Xrotation Yrotation Zrotation
		JOINT spine_2
		{
			OFFSET	0	112	-10
			CHANNELS 3  Xrotation Yrotation Zrotation
			JOINT spine_3
			{
				OFFSET	0	206.5	19.3
				CHANNELS 3  Xrotation Yrotation Zrotation
				JOINT spine_4
				{
					OFFSET	0	110.4	14.6
					CHANNELS 3  Xrotation Yrotation Zrotation
					JOINT neck_1
					{
						OFFSET	0	71.8	-50.3
						CHANNELS 3  Xrotation Yrotation Zrotation
						JOINT neck_2
						{
							OFFSET	0	86.2	-25.8
							CHANNELS 3  Xrotation Yrotation Zrotation
							JOINT head_ee
							{
								OFFSET	0	179.8	-8.7
								CHANNELS 3  Xrotation Yrotation Zrotation
								End Site
								{
									OFFSET	1	0	0
								}
							}
						}
					}
					JOINT left_clavicle
					{
						OFFSET	-43.2	22.4	-70.8
						CHANNELS 3  Xrotation Yrotation Zrotation
						JOINT left_shoulder
						{
							OFFSET	-93.9	-5.79999	48.7
							CHANNELS 3  Xrotation Yrotation Zrotation
							JOINT left_elbow
							{
								OFFSET	-291.4	-30.8	15.2
								CHANNELS 3  Xrotation Yrotation Zrotation
								JOINT left_lowarm_twist
								{
									OFFSET	-110.7	-3.89999	13.6
									CHANNELS 3  Xrotation Yrotation Zrotation
									JOINT left_hand
									{
										OFFSET	-110.7	-3.89999	13.6
										CHANNELS 3  Xrotation Yrotation Zrotation
										JOINT left_ee
										{
											OFFSET	-80.8	-5.10001	12.1
											CHANNELS 3  Xrotation Yrotation Zrotation
											End Site
											{
												OFFSET	1	0	0
											}
										}
									}
								}
							}
						}
					}
					JOINT right_clavicle
					{
						OFFSET	43.2	22.4	-70.8
						CHANNELS 3  Xrotation Yrotation Zrotation
						JOINT right_shoulder
						{
							OFFSET	93.9	-5.79999	48.7
							CHANNELS 3  Xrotation Yrotation Zrotation
							JOINT right_elbow
							{
								OFFSET	291.4	-30.8	15.2
								CHANNELS 3  Xrotation Yrotation Zrotation
								JOINT right_lowarm_twist
								{
									OFFSET	110.7	-3.89999	13.6
									CHANNELS 3  Xrotation Yrotation Zrotation
									JOINT right_hand
									{
										OFFSET	110.7	-3.89999	13.6
										CHANNELS 3  Xrotation Yrotation Zrotation
										JOINT right_ee
										{
											OFFSET	80.8	-5.10001	12.1
											CHANNELS 3  Xrotation Yrotation Zrotation
											End Site
											{
												OFFSET	1	0	0
											}
										}
									}
								}
							}
						}
					}
				}
			}
		}
	}
	JOINT left_hip
	{
		OFFSET	-82.8	-127.5	0.300001
		CHANNELS 3  Xrotation Yrotation Zrotation
		JOINT left_knee
		{
			OFFSET	-28.2	-396.7	2.2
			CHANNELS 3  Xrotation Yrotation Zrotation
			JOINT left_ankle
			{
				OFFSET	-11.7	-411.3	35.4
				CHANNELS 3  Xrotation Yrotation Zrotation
				JOINT left_toes
				{
					OFFSET	0	-60	-88.6
					CHANNELS 3  Xrotation Yrotation Zrotation
					JOINT left_foot_ee
					{
						OFFSET	-22.5	-16.5	-42.2
						CHANNELS 3  Xrotation Yrotation Zrotation
						End Site
						{
							OFFSET	1	0	0
						}
					}
				}
			}
		}
	}
	JOINT right_hip
	{
		OFFSET	82.8	-127.5	0.300001
		CHANNELS 3  Xrotation Yrotation Zrotation
		JOINT right_knee
		{
			OFFSET	28.2	-396.7	2.2
			CHANNELS 3  Xrotation Yrotation Zrotation
			JOINT right_ankle
			{
				OFFSET	11.7	-411.3	35.4
				CHANNELS 3  Xrotation Yrotation Zrotation
				JOINT right_toes
				{
					OFFSET	0	-60	-88.6
					CHANNELS 3  Xrotation Yrotation Zrotation
					JOINT right_foot_ee
					{
						OFFSET	22.5	-16.5	-42.2
						CHANNELS 3  Xrotation Yrotation Zrotation
						End Site
						{
							OFFSET	1	0	0
						}
					}
				}
			}
		}
	}
}
MOTION
Frames: 14
Frame Time: 0.02
2844.11740691 708.157 -1703.07776936 8.80569620659 56.0699892116 4.16078497908 -0.0440468 -0.637768 -3.30044 -0.0380885 -0.42658 -3.33428 -0.00980712 0.284385 -3.34939 -0.0253745 -0.247853 -3.35229 -7.65682 5.4761 2.22872 -7.65128 8.61876 3.37688 -0.0 0.0 -0.0 7.44543 20.0865 13.4322 -7.9639 -27.3974 52.589 1.7178 -40.3926 0.631943 -65.4317 -5.96494 5.23792 -0.602068 11.5759 0.954465 -0.0 0.0 -0.0 3.52886 9.78555 -6.14223 -14.4351 7.46558 -66.7232 0.750025 20.382 -0.134831 71.5025 2.89775 8.06013 1.31966 -24.6092 -17.5273 0.0 0.0 0.0 8.50378 32.9817 -19.1225 -2.56055 0.0969263 0.380973 29.2007 -0.365621 -3.82714 -30.2766 0.0 0.0 -0.0 0.0 -0.0 10.1751 15.2412 -13.2443 -55.1952 1.7041 -7.97523 12.2393 -7.65658 1.72581 -38.3172 0.0 0.0 0.0 0.0 0.0 
2828.80220577 709.547 -1696.46352024 8.25092381 57.0535085134 4.18014418797 -0.117647 -0.629702 -3.41206 -0.111265 -0.41144 -3.44516 -0.0827478 0.326971 -3.45419 -0.0993261 -0.22232 -3.46249 -7.51778 6.18314 1.2945 -7.5212 10.5925 2.58967 -0.0 0.0 -0.0 7.67231 19.158 13.8751 -5.69919 -27.4108 52.9045 1.82684 -42.1399 0.703871 -66.5225 -6.10325 5.25751 -1.09675 14.352 -0.95 -0.0 0.0 -0.0 3.25995 11.0151 -5.48537 -14.7811 7.40595 -66.1215 0.484619 13.4995 -0.0573567 71.7506 2.92401 8.07812 0.815292 -25.0644 -14.6731 0.0 0.0 0.0 6.41647 33.519 -17.1693 0.0282385 -0.00116377 -0.00417719 28.3257 -2.75794 -3.75316 -30.7379 0.0 0.0 -0.0 0.0 -0.0 14.0059 14.9768 -14.4188 -55.3473 1.71907 -7.99327 10.9933 -6.86193 1.55737 -38.7236 0.0 0.0 0.0 0.0 0.0 
2816.70020751 707.455 -1678.14301933 7.01257252634 58.440793112 5.37331464333 0.0553093 -0.619038 -3.62995 0.0625555 -0.386959 -3.66193 0.0911228 0.385767 -3.66205 0.072466 -0.197024 -3.67702 -6.83492 6.22596 1.84169 -6.82729 10.2248 3.08867 -0.0 0.0 -0.0 8.22829 19.9289 14.6629 -3.87108 -27.8921 52.6702 1.94198 -43.8858 0.782424 -67.2828 -6.19984 5.2696 -1.50102 16.1165 -2.65167 -0.0 0.0 -0.0 2.95927 11.1681 -4.84569 -15.7661 7.25979 -65.5779 0.451746 12.6141 -0.0499299 72.2924 2.98165 8.11703 0.875927 -24.5958 -14.8823 0.0 0.0 0.0 5.57251 34.6376 -16.0759 1.95618 -0.0854835 -0.287987 28.6075 -1.37007 -3.77081 -30.838 0.0 0.0 -0.0 0.0 -0.0 17.7966 14.2714 -15.4927 -54.9839 1.68338 -7.95011 10.2809 -5.89321 1.46077 -38.9562 0.0 0.0 0.0 0.0 0.0 
2802.16137167 704.451 -1655.83856045 6.68401434746 60.1907822475 5.31128738354 0.128098 -0.541685 -3.83137 0.136214 -0.296974 -3.85802 0.16012 0.510342 -3.83566 0.139609 -0.101364 -3.86809 -6.48328 7.10207 2.73543 -6.46234 11.1684 4.12836 -0.0 0.0 -0.0 8.82173 18.897 15.7299 -1.86193 -27.1154 52.6268 1.98182 -44.467 0.810183 -67.8565 -6.27281 5.27787 -1.87729 18.4803 -3.82818 -0.0 0.0 -0.0 2.89426 12.2959 -4.61214 -16.8934 7.08897 -64.772 0.285814 8.05877 -0.0201334 72.4266 2.99598 8.12658 0.474152 -24.6728 -12.5519 0.0 0.0 0.0 3.0419 34.9782 -14.056 2.70949 -0.121022 -0.3981 30.1238 -3.60433 -3.95786 -29.7059 0.0 0.0 -0.0 0.0 -0.0 20.1968 13.7857 -15.3727 -54.3549 1.62223 -7.87488 9.00962 -6.61755 1.2853 -39.1392 0.0 0.0 0.0 0.0 0.0 
2776.67510375 705.591 -1618.08398066 6.21406471767 63.7383448032 5.1138276684 0.1192 -0.739007 -4.42133 0.129956 -0.456456 -4.45929 0.170928 0.478177 -4.45702 0.143291 -0.230999 -4.4766 -9.58233 10.7124 8.31414 -9.45519 14.4753 10.6899 -0.0 0.0 -0.0 9.30496 17.6311 16.6856 2.90945 -25.0797 53.7729 2.27321 -48.387 1.02142 -70.2593 -6.57912 5.30451 -2.54704 23.7211 -5.14306 -0.0 0.0 -0.0 2.18142 12.1453 -3.13284 -18.6481 8.69646 -63.3451 0.236817 6.69107 -0.0138436 74.8874 3.26265 8.29571 -1.96278 -26.4636 0.474315 0.0 0.0 0.0 -0.0925734 39.846 -10.8843 7.03161 -0.352723 -1.02029 28.6743 -10.4828 -3.90988 -30.4387 0.0 0.0 -0.0 0.0 -0.0 29.6253 21.1063 -18.5849 -28.5866 -0.0956019 -4.34066 -9.42028 -15.4461 -1.41314 -39.6896 0.0 0.0 0.0 0.0 0.0 
2776.64418166 705.591 -1618.32632219 6.20646654194 63.7038667069 5.12230163141 0.1192 -0.739007 -4.42133 0.129956 -0.456456 -4.45929 0.170928 0.478177 -4.45702 0.143291 -0.230999 -4.4766 -9.58233 10.7124 8.31414 -9.45519 14.4753 10.6899 -0.0 0.0 -0.0 9.30496 17.6311 16.6856 2.90945 -25.0797 53.7729 2.27321 -48.387 1.02142 -70.2593 -6.57912 5.30451 -2.54704 23.7211 -5.14306 -0.0 0.0 -0.0 2.18142 12.1453 -3.13284 -18.6481 8.69646 -63.3451 0.236817 6.69107 -0.0138436 74.8874 3.26265 8.29571 -1.96278 -26.4636 0.474315 0.0 0.0 0.0 -0.0925734 39.846 -10.8843 7.03161 -0.352723 -1.02029 28.6743 -10.4828 -3.90988 -30.4387 0.0 0.0 -0.0 0.0 -0.0 29.6253 21.1063 -18.5849 -28.5866 -0.0956019 -4.34066 -9.42028 -15.4461 -1.41314 -39.6896 0.0 0.0 0.0 0.0 0.0 
2759.73452679 705.436 -1613.05015918 5.40961762954 63.9906187757 5.54880382017 0.00158224 -0.703341 -4.50773 0.012787 -0.415381 -4.54325 0.0516438 0.545392 -4.52951 0.0230676 -0.176035 -4.55877 -7.32998 12.4737 9.90487 -7.09032 16.1275 12.394 -0.0 0.0 -0.0 9.87207 17.6447 17.6264 3.46395 -24.5253 53.4367 2.37976 -49.6856 1.10189 -71.9721 -6.7979 5.3156 -3.4475 26.4149 -8.75759 -0.0 0.0 -0.0 2.04555 12.2585 -2.8376 -19.8781 8.11737 -63.2437 0.239353 6.76207 -0.0141407 74.5137 3.22169 8.27076 -2.96556 -27.0915 5.68643 0.0 0.0 0.0 -0.962681 40.1044 -9.98821 6.56003 -0.325163 -0.95326 31.0917 -13.3481 -4.24217 -33.2295 0.0 0.0 -0.0 0.0 -0.0 29.218 18.7391 -16.9962 -21.2507 -0.278678 -3.23051 -7.84556 -14.7171 -1.17256 -40.1456 0.0 0.0 0.0 0.0 0.0 
2747.61195485 699.944 -1609.13372949 4.44893188621 63.6665561235 5.75482614046 -0.130422 -0.707315 -4.6519 -0.118481 -0.410202 -4.68738 -0.0782321 0.591354 -4.66803 -0.108595 -0.152451 -4.70279 -8.24603 13.3791 11.7571 -7.91822 16.7519 14.4896 -0.0 0.0 -0.0 9.86699 17.6618 17.6153 4.10811 -24.4728 53.9931 2.59452 -52.1062 1.26857 -71.675 -6.75994 5.31415 -3.10286 25.0919 -7.57295 -0.0 0.0 -0.0 2.17722 12.0913 -3.12916 -20.6693 7.16214 -61.9856 0.249936 7.05811 -0.015414 74.8155 3.25476 8.29093 -4.22271 -28.6648 11.6767 0.0 0.0 0.0 -2.06398 40.1397 -8.28243 5.88923 -0.286915 -0.857532 32.6104 -14.8858 -4.44669 -35.0253 0.0 0.0 -0.0 0.0 -0.0 30.1763 20.8857 -16.509 -15.7716 -0.322025 -2.39127 0.229548 -12.7589 0.0336712 -39.2009 0.0 0.0 0.0 0.0 0.0 
2734.3515025 696.873 -1605.49298843 3.44811012377 63.5295575187 6.16308724745 -0.198645 -0.735348 -4.71838 -0.186369 -0.433963 -4.7555 -0.143199 0.587904 -4.73897 -0.174487 -0.167024 -4.7723 -7.45769 14.5544 11.7504 -7.11893 18.7286 14.6384 -0.0 0.0 -0.0 9.96675 17.7283 17.7718 4.2004 -24.3764 53.9968 2.75253 -53.7341 1.39465 -73.3146 -6.96949 5.31968 -3.84262 27.9569 -10.0262 -0.0 0.0 -0.0 2.11326 12.0759 -2.99678 -20.5824 6.88524 -61.3297 0.213675 6.04232 -0.0112774 75.6642 3.34832 8.34671 -5.04587 -29.0136 16.0319 0.0 0.0 0.0 -2.92009 39.8981 -7.75529 5.08687 -0.242646 -0.742462 35.6717 -17.4464 -4.84333 -35.7699 0.0 0.0 -0.0 0.0 -0.0 31.2689 22.4422 -16.1629 -12.0447 -0.3056 -1.81979 2.8683 -11.7552 0.417482 -39.4631 0.0 0.0 0.0 0.0 0.0 
2713.65762233 695.364 -1608.74303828 3.62517421509 62.3387119504 5.14254343582 -0.315559 -0.734492 -4.65156 -0.303632 -0.437346 -4.68876 -0.260486 0.579931 -4.6733 -0.290912 -0.164562 -4.70619 -7.63933 14.0474 10.1827 -7.39958 18.9641 13.0257 -0.0 0.0 -0.0 10.1156 17.9424 17.9867 4.56784 -23.589 54.3772 2.90187 -55.1648 1.51616 -74.1744 -7.07938 5.32017 -3.90411 28.6598 -9.92455 -0.0 0.0 -0.0 2.13515 12.1668 -3.03394 -21.3411 6.83669 -60.6838 0.207912 5.8805 -0.0106788 75.3064 3.30877 8.32336 -5.84836 -29.1383 20.5402 0.0 0.0 0.0 -4.838 40.9599 -5.78051 3.55228 -0.162499 -0.52074 38.3763 -19.9044 -5.20033 -36.4154 0.0 0.0 -0.0 0.0 -0.0 31.8095 23.8442 -16.0945 -9.37008 -0.270927 -1.41089 8.19711 -9.47758 1.17261 -37.6616 0.0 0.0 0.0 0.0 0.0 
2698.20305485 691.123 -1608.80128008 4.13208189954 61.5972393607 4.22592575054 -0.430296 -0.726373 -4.62359 -0.41851 -0.431018 -4.66033 -0.375821 0.589375 -4.643 -0.40586 -0.150466 -4.67776 -7.56871 13.8581 9.41398 -7.36813 19.1429 12.2258 -0.0 0.0 -0.0 10.2084 17.9916 18.1338 4.52272 -23.0012 55.2717 2.99874 -56.041 1.59609 -75.2925 -7.22224 5.31832 -3.96781 28.462 -10.4001 -0.0 0.0 -0.0 2.24204 12.0996 -3.26402 -21.312 6.87865 -60.5098 0.213228 6.02978 -0.0112305 75.6246 3.34393 8.34414 -6.37426 -29.2304 23.5747 0.0 0.0 0.0 -6.28614 41.0964 -4.43727 2.41672 -0.107038 -0.35536 38.6095 -20.9281 -5.26656 -36.9445 0.0 0.0 -0.0 0.0 -0.0 32.5922 24.8685 -15.7818 -7.59499 -0.237392 -1.14058 9.34089 -7.9708 1.33072 -36.3692 0.0 0.0 0.0 0.0 0.0 
2603.24561614 681.329 -1614.38592615 9.29993420726 67.1535417154 -1.98728012048 -1.15889 -0.67914 -4.4255 -1.14808 -0.396444 -4.45966 -1.10812 0.636417 -4.43184 -1.13552 -0.0707681 -4.47665 -7.89271 15.7564 10.4652 -7.65834 22.052 13.6994 -0.0 0.0 -0.0 9.97416 16.9691 17.9004 1.41384 -22.4107 58.2792 2.73999 -53.6093 1.38455 -78.6139 -7.64574 5.29626 -3.61567 23.8648 -11.2423 -0.0 0.0 -0.0 3.4248 10.2272 -5.89185 -21.0371 7.0144 -62.5335 0.395411 11.0827 -0.0383618 79.2295 3.75 8.56574 -7.44105 -29.5783 29.8624 0.0 0.0 0.0 -15.0445 43.9968 -2.19206 1.3934 -0.0598819 -0.20543 38.8527 -15.4052 -5.07631 -34.1318 0.0 0.0 -0.0 0.0 -0.0 32.9646 29.9069 -15.398 -7.82144 -0.242136 -1.17501 -6.99923 4.98773 -1.06888 -31.3546 0.0 0.0 0.0 0.0 0.0 
2586.33026291 683.597 -1619.95538536 9.50460676795 67.2219036948 -2.75096813301 -1.38076 -0.561492 -4.42991 -1.36989 -0.278753 -4.45659 -1.33878 0.768358 -4.39881 -1.36577 0.0647259 -4.46482 -6.60052 16.2968 9.54204 -6.35983 23.3554 12.6988 -0.0 0.0 -0.0 10.1588 16.696 18.2559 0.213752 -20.9191 58.7575 2.65742 -52.769 1.31843 -78.8006 -7.66948 5.29429 -3.78865 24.5125 -11.8563 -0.0 0.0 -0.0 3.73346 9.83715 -6.5626 -20.4322 7.52677 -62.422 0.390992 10.9619 -0.0375172 80.3794 3.88236 8.63101 -7.38402 -29.5607 29.5141 0.0 0.0 0.0 -15.3247 44.0817 -2.29064 0.113311 -0.00468263 -0.016758 36.6516 -14.3624 -4.83807 -34.643 0.0 0.0 -0.0 0.0 -0.0 32.1982 30.4897 -14.7481 -8.02408 -0.246266 -1.20583 -7.97992 6.55048 -1.22927 -30.2712 0.0 0.0 0.0 0.0 0.0 
2585.72608911 683.597 -1627.81976195 9.21466223489 66.4696228376 -2.43562932384 -1.38076 -0.561492 -4.42991 -1.36989 -0.278753 -4.45659 -1.33878 0.768358 -4.39881 -1.36577 0.0647259 -4.46482 -6.60052 16.2968 9.54204 -6.35983 23.3554 12.6988 -0.0 0.0 -0.0 10.1588 16.696 18.2559 0.213752 -20.9191 58.7575 2.65742 -52.769 1.31843 -78.8006 -7.66948 5.29429 -3.78865 24.5125 -11.8563 -0.0 0.0 -0.0 3.73346 9.83715 -6.5626 -20.4322 7.52677 -62.422 0.390992 10.9619 -0.0375172 80.3794 3.88236 8.63101 -7.38402 -29.5607 29.5141 0.0 0.0 0.0 -15.3247 44.0817 -2.29064 0.113311 -0.00468263 -0.016758 36.6516 -14.3624 -4.83807 -34.643 0.0 0.0 -0.0 0.0 -0.0 32.1982 30.4897 -14.7481 -8.02408 -0.246266 -1.20583 -7.97992 6.55048 -1.22927 -30.2712 0.0 0.0 0.0 0.0 0.0 
